#!OML:ASF F:\VICON\USERDATA\INSTALL\Justin_Nancy\Justin_Nancy.ASF
:FULLY-SPECIFIED
:DEGREES
385
root -0.46369 16.8996 18.6155 -15.3789 5.70307 -1.36316
lowerback 3.6107 0.688465 -3.06082
upperback 2.12282 0.831821 1.10874
thorax 0.0968508 0.385907 2.82702
lowerneck -10.2304 -5.35046 -9.75815
upperneck 21.9199 -8.05426 10.5433
head 9.39479 -3.53296 4.36413
rclavicle 1.00386e-014 -6.55989e-015
rhumerus -21.6824 11.3834 -82.2479
rradius 85.2673
rwrist -3.4166
rhand -26.204 17.8032
rfingers 7.12502
rthumb 0.348736 -12.1762
lclavicle 1.00386e-014 -6.55989e-015
lhumerus -31.8177 -0.30145 76.76
lradius 72.5964
lwrist 10.4694
lhand -29.8049 20.3308
lfingers 7.12502
lthumb -3.12906 50.2876
rfemur -4.30073 -1.91061 25.845
rtibia 48.4456
rfoot -11.506 -2.8115
rtoes 9.941
lfemur -12.5769 -11.0302 -14.7189
ltibia 53.4306
lfoot -9.57081 -1.50251
ltoes -15.0161
386
root -0.488603 17.0112 18.6562 -14.742 5.70772 -1.73735
lowerback 3.68327 0.73333 -2.62912
upperback 1.77973 0.900786 1.1628
thorax -0.296221 0.433922 2.63368
lowerneck -10.0012 -5.36825 -9.63971
upperneck 21.8726 -8.11248 10.5274
head 9.33552 -3.55929 4.33436
rclavicle 1.48592e-014 1.09332e-014
rhumerus -21.9953 10.4887 -81.5533
rradius 85.8283
rwrist 0.33754
rhand -26.0279 18.1042
rfingers 7.12502
rthumb 0.51881 -11.8749
lclavicle 1.48592e-014 1.09332e-014
lhumerus -32.1906 -0.375643 75.4291
lradius 73.7549
lwrist 10.8994
lhand -29.6178 20.7012
lfingers 7.12502
lthumb -2.94832 50.6606
rfemur -3.97486 -1.37104 26.3721
rtibia 46.6651
rfoot -10.585 -2.5097
rtoes 11.7835
lfemur -12.6374 -11.0876 -14.1639
ltibia 52.2551
lfoot -8.38642 -1.53936
ltoes -13.6166
387
root -0.51184 17.1272 18.7034 -14.1397 5.82833 -1.77664
lowerback 3.63299 0.78035 -2.56026
upperback 1.54507 0.965424 1.14848
thorax -0.512047 0.472629 2.57631
lowerneck -9.88585 -5.36067 -9.73031
upperneck 21.9174 -8.14564 10.7345
head 9.34579 -3.56456 4.42267
rclavicle -2.42766e-014 0
rhumerus -22.4766 9.46275 -80.8676
rradius 86.2734
rwrist 3.87367
rhand -26.1223 18.4687
rfingers 7.12502
rthumb 0.427576 -11.5107
lclavicle -2.42766e-014 0
lhumerus -32.5632 -0.377621 74.1823
lradius 74.8234
lwrist 10.9069
lhand -29.3455 21.2334
lfingers 7.12502
lthumb -2.68537 51.1963
rfemur -3.56142 -0.994132 26.4299
rtibia 44.9437
rfoot -9.82034 -2.25426
rtoes 12.7422
lfemur -12.5395 -11.2011 -14.0438
ltibia 51.0286
lfoot -7.2673 -1.55623
ltoes -11.9519
388
root -0.519001 17.248 18.7565 -13.377 6.27575 -0.886848
lowerback 3.28344 0.752176 -3.29775
upperback 1.40327 0.910567 0.84427
thorax -0.464415 0.444483 2.68345
lowerneck -9.59559 -5.3373 -9.78558
upperneck 21.7603 -8.14285 10.8741
head 9.24395 -3.56478 4.48451
rclavicle 3.2551e-015 -8.74653e-015
rhumerus -22.7533 8.67741 -80.2495
rradius 86.404
rwrist 6.21379
rhand -26.5577 18.9609
rfingers 7.12502
rthumb 0.00711305 -11.0188
lclavicle 3.2551e-015 -8.74653e-015
lhumerus -32.8341 -0.165596 72.9135
lradius 75.6739
lwrist 10.6974
lhand -28.9584 21.8382
lfingers 7.12502
lthumb -2.31157 51.8054
rfemur -3.14993 -1.07056 25.1714
rtibia 43.2595
rfoot -9.09971 -1.60851
rtoes 12.6153
lfemur -12.3589 -11.5953 -15.164
ltibia 49.7312
lfoot -6.11609 -1.2866
ltoes -11.1338
389
root -0.524343 17.3594 18.7965 -12.4448 6.70865 -0.100715
lowerback 2.87687 0.617229 -3.92782
upperback 1.28837 0.725068 0.643415
thorax -0.346159 0.349517 2.84126
lowerneck -9.60912 -5.36949 -9.99493
upperneck 21.5671 -8.124 10.8515
head 9.18606 -3.57667 4.51002
rclavicle 7.28049e-015 1.15295e-014
rhumerus -22.5975 8.22275 -79.5817
rradius 86.1401
rwrist 7.71982
rhand -26.8791 19.202
rfingers 7.12502
rthumb -0.303334 -10.7775
lclavicle 7.28049e-015 1.15295e-014
lhumerus -33.1506 0.413557 71.6717
lradius 76.4145
lwrist 10.1339
lhand -28.3454 21.7118
lfingers 7.12502
lthumb -1.71949 51.6847
rfemur -2.9863 -1.17421 24.027
rtibia 41.576
rfoot -8.32515 -1.00321
rtoes 11.4143
lfemur -12.4595 -11.9538 -16.1119
ltibia 48.4623
lfoot -4.93659 -1.01381
ltoes -10.984
390
root -0.5467 17.4639 18.8311 -11.8535 6.69571 -0.84335
lowerback 2.81918 0.50075 -3.10331
upperback 1.19281 0.593474 0.906896
thorax -0.397171 0.287804 2.65311
lowerneck -10.0057 -5.36944 -10.2114
upperneck 21.5816 -8.04003 10.815
head 9.26459 -3.5454 4.53727
rclavicle 9.31803e-015 2.78299e-015
rhumerus -22.434 7.63571 -79.0139
rradius 85.7709
rwrist 8.02779
rhand -25.3566 17.8387
rfingers 7.12502
rthumb 1.1672 -12.1378
lclavicle 9.31803e-015 2.78299e-015
lhumerus -33.6318 1.00627 70.4381
lradius 77.084
lwrist 9.42184
lhand -27.8457 21.0646
lfingers 7.12502
lthumb -1.23689 51.0408
rfemur -2.74584 -0.690129 24.8983
rtibia 39.8794
rfoot -7.3799 -1.03234
rtoes 11.5814
lfemur -12.5405 -12.0141 -15.1466
ltibia 47.2925
lfoot -3.97453 -1.06748
ltoes -11.2834
391
root -0.575903 17.5639 18.8732 -11.5529 6.40813 -1.61204
lowerback 2.96103 0.523085 -2.28529
upperback 1.17423 0.643382 1.17701
thorax -0.4939 0.315914 2.46792
lowerneck -10.249 -5.33162 -10.2489
upperneck 21.523 -7.9362 10.7535
head 9.27706 -3.49825 4.52917
rclavicle -8.75895e-015 1.46107e-014
rhumerus -22.4081 7.05444 -78.6307
rradius 85.1711
rwrist 7.20011
rhand -25.5577 17.3848
rfingers 7.12502
rthumb 0.972916 -12.5927
lclavicle -8.75895e-015 1.46107e-014
lhumerus -34.0057 1.57353 69.2792
lradius 77.3693
lwrist 8.8281
lhand -28.3582 21.3212
lfingers 7.12502
lthumb -1.73188 51.2939
rfemur -2.23832 0.179447 25.9387
rtibia 38.2283
rfoot -6.41794 -1.19547
rtoes 13.2904
lfemur -12.2267 -11.8187 -14.1088
ltibia 46.1554
lfoot -3.13984 -1.11046
ltoes -11.722
392
root -0.594441 17.6557 18.9125 -11.0921 6.2266 -1.37288
lowerback 2.98282 0.575617 -2.39833
upperback 1.19025 0.709898 1.17748
thorax -0.494914 0.348804 2.52958
lowerneck -10.4612 -5.3033 -10.4057
upperneck 21.4105 -7.83416 10.7519
head 9.27287 -3.45725 4.56203
rclavicle -5.96975e-015 3.03147e-015
rhumerus -22.4799 6.58483 -78.2978
rradius 84.6179
rwrist 5.44322
rhand -26.2881 16.9255
rfingers 7.12502
rthumb 0.267501 -13.0541
lclavicle -5.96975e-015 3.03147e-015
lhumerus -34.3206 2.25612 68.1954
lradius 77.3819
lwrist 8.20016
lhand -29.0927 21.7026
lfingers 7.12502
lthumb -2.44121 51.6684
rfemur -1.82113 0.967887 25.7396
rtibia 36.679
rfoot -5.55777 -1.10704
rtoes 14.6368
lfemur -11.8745 -11.6813 -14.2852
ltibia 44.9653
lfoot -2.21253 -0.908231
ltoes -12.0122
393
root -0.602581 17.7458 18.9559 -10.5586 6.10394 -0.894771
lowerback 3.04922 0.609847 -2.64159
upperback 1.05764 0.745762 1.11231
thorax -0.672392 0.370646 2.59673
lowerneck -10.5292 -5.22135 -10.5868
upperneck 21.3623 -7.64534 10.6479
head 9.24961 -3.39169 4.57771
rclavicle 4.80733e-015 7.60973e-015
rhumerus -22.8746 6.03504 -78.0253
rradius 83.9948
rwrist 3.4005
rhand -26.1549 16.3717
rfingers 7.12502
rthumb 0.396155 -13.6077
lclavicle 4.80733e-015 7.60973e-015
lhumerus -35.1469 2.74365 67.0944
lradius 77.5997
lwrist 7.7695
lhand -29.3017 21.6291
lfingers 7.12502
lthumb -2.64307 51.5924
rfemur -1.49148 1.49518 25.1239
rtibia 35.3233
rfoot -4.83286 -0.482259
rtoes 13.7751
lfemur -11.4882 -11.6927 -14.8259
ltibia 43.65
lfoot -1.23238 -0.489638
ltoes -11.466
394
root -0.610941 17.8354 19.0051 -9.93074 5.79029 -0.535201
lowerback 2.93773 0.686083 -2.71753
upperback 0.913715 0.846541 1.06402
thorax -0.764556 0.424218 2.58623
lowerneck -10.5229 -5.15488 -10.6179
upperneck 21.1736 -7.47031 10.4002
head 9.15381 -3.33752 4.51297
rclavicle -1.69588e-015 -5.51627e-015
rhumerus -23.2207 5.38267 -77.8437
rradius 83.1794
rwrist 1.29173
rhand -25.7362 15.8588
rfingers 7.12502
rthumb 0.800525 -14.1194
lclavicle -1.69588e-015 -5.51627e-015
lhumerus -36.005 3.15651 65.9941
lradius 77.8561
lwrist 7.50718
lhand -29.9645 23.5976
lfingers 7.12502
lthumb -3.28322 53.5521
rfemur -1.37764 2.03199 24.6444
rtibia 34.1362
rfoot -4.05464 0.874875
rtoes 8.50831
lfemur -11.1189 -11.5652 -15.1853
ltibia 42.2383
lfoot -0.295096 -0.0605725
ltoes -10.9361
395
root -0.621254 17.9226 19.0417 -9.11422 5.47686 -0.100706
lowerback 2.62951 0.734686 -2.90845
upperback 0.805871 0.912931 1.00393
thorax -0.708901 0.457957 2.63224
lowerneck -10.4999 -5.13566 -10.6925
upperneck 20.8875 -7.36935 10.2404
head 9.03624 -3.31356 4.47597
rclavicle 1.71452e-015 2.76808e-014
rhumerus -23.5027 4.66488 -77.7238
rradius 82.3364
rwrist -0.582811
rhand -25.1079 15.0205
rfingers 7.12502
rthumb 1.40739 -14.9546
lclavicle 1.71452e-015 2.76808e-014
lhumerus -36.4851 3.82522 64.9793
lradius 77.6264
lwrist 7.19103
lhand -30.5512 26.6655
lfingers 7.12502
lthumb -3.84973 56.6105
rfemur -1.56136 2.63181 24.0828
rtibia 32.9398
rfoot -2.99467 1.65452
rtoes 10.7728
lfemur -11.0238 -11.355 -15.5602
ltibia 40.8371
lfoot 0.648018 0.29405
ltoes -10.5549
396
root -0.635066 18.0063 19.0769 -8.4091 5.61862 0.138046
lowerback 2.53062 0.652484 -3.02407
upperback 0.652421 0.801705 0.998564
thorax -0.804963 0.406025 2.69562
lowerneck -10.3305 -5.12535 -10.8737
upperneck 20.5174 -7.2969 10.2021
head 8.8754 -3.30372 4.49749
rclavicle -2.08475e-014 -1.65985e-014
rhumerus -24.087 3.78461 -77.5823
rradius 81.5109
rwrist -1.81335
rhand -24.424 14.4602
rfingers 7.12502
rthumb 2.06791 -15.5095
lclavicle -2.08475e-014 -1.65985e-014
lhumerus -36.7297 4.50951 64.1256
lradius 76.922
lwrist 7.02094
lhand -30.6389 28.5774
lfingers 7.12502
lthumb -3.93442 58.5209
rfemur -1.61817 2.92427 23.7161
rtibia 31.7168
rfoot -1.96422 2.02178
rtoes 12.9368
lfemur -10.9819 -11.5122 -15.7537
ltibia 39.5016
lfoot 1.51754 0.462793
ltoes -10.3745
397
root -0.648514 18.081 19.119 -7.94869 6.12131 -0.0605
lowerback 2.54201 0.453746 -2.73574
upperback 0.639714 0.544838 1.12077
thorax -0.805169 0.277331 2.6676
lowerneck -10.6092 -5.1244 -11.0626
upperneck 20.3859 -7.20368 10.1329
head 8.87705 -3.27294 4.50933
rclavicle -1.61016e-014 8.24956e-015
rhumerus -24.6418 2.8089 -77.3873
rradius 80.6387
rwrist -2.30052
rhand -24.1081 13.9553
rfingers 7.12502
rthumb 2.37295 -16.0113
lclavicle -1.61016e-014 8.24956e-015
lhumerus -36.7572 5.20716 63.4718
lradius 76.1135
lwrist 7.04308
lhand -30.4631 29.2471
lfingers 7.12502
lthumb -3.76469 59.1936
rfemur -1.37381 2.90248 23.873
rtibia 30.4969
rfoot -1.13671 2.26109
rtoes 12.3292
lfemur -10.8422 -11.9792 -15.5051
ltibia 38.2984
lfoot 2.26006 0.473354
ltoes -10.0201
398
root -0.658194 18.1468 19.1545 -7.42374 6.28383 -0.0748243
lowerback 2.46222 0.322379 -2.5886
upperback 0.629342 0.376234 1.22759
thorax -0.759684 0.19224 2.70061
lowerneck -10.9814 -5.08303 -11.2455
upperneck 20.4399 -7.0475 10.0175
head 8.94981 -3.21361 4.51409
rclavicle -1.09083e-014 1.11319e-014
rhumerus -24.833 2.13408 -77.166
rradius 79.4745
rwrist -2.48325
rhand -23.7088 13.1842
rfingers 7.12502
rthumb 2.75858 -16.7777
lclavicle -1.09083e-014 1.11319e-014
lhumerus -37.076 5.90161 62.7836
lradius 75.3893
lwrist 7.15825
lhand -29.3467 27.2903
lfingers 7.12502
lthumb -2.68651 57.2531
rfemur -1.20571 3.05148 23.8473
rtibia 29.2956
rfoot -0.400964 2.58049
rtoes 11.1168
lfemur -10.7421 -12.1343 -15.422
ltibia 37.2196
lfoot 2.94149 0.562701
ltoes -9.54302
399
root -0.67262 18.2055 19.1869 -6.91376 5.9998 -0.152706
lowerback 2.39626 0.334094 -2.38651
upperback 0.610142 0.399258 1.34374
thorax -0.743463 0.203525 2.70592
lowerneck -11.1005 -5.02058 -11.2413
upperneck 20.2465 -6.89099 9.83353
head 8.88086 -3.15405 4.46232
rclavicle 1.73937e-016 2.78299e-014
rhumerus -24.8838 1.48082 -77.0215
rradius 78.0437
rwrist -2.22038
rhand -23.4236 12.7686
rfingers 7.12502
rthumb 3.034 -17.1896
lclavicle 1.73937e-016 2.78299e-014
lhumerus -37.5665 6.42094 62.1192
lradius 74.817
lwrist 7.4305
lhand -27.7556 24.3924
lfingers 7.12502
lthumb -1.14988 54.3691
rfemur -1.20193 3.58446 23.9633
rtibia 28.2001
rfoot 0.357607 2.75804
rtoes 11.6087
lfemur -10.608 -11.8238 -15.1954
ltibia 36.2104
lfoot 3.51512 0.624341
ltoes -9.15997
